<svg width="23" height="35" viewBox="0 0 23 35" fill="none" xmlns="http://www.w3.org/2000/svg">
<path d="M20.4351 0H2.96238C1.71433 0 0.674286 0.973304 0.674286 2.14127V21.1402C0.674286 22.2692 1.13191 23.3204 1.92234 24.1379L4.04403 26.3181L4.08563 26.3571C5.54169 27.8365 5.7081 27.9922 6.08252 27.9922H9.41066V33.1313L9.99308 35H13.446L14.0285 33.1313V28.0311H17.3566C17.731 28.0311 17.8974 27.8754 19.3535 26.396L21.5168 24.1379C22.3072 23.3204 22.7648 22.2303 22.7648 21.1402V2.14127C22.7232 0.973304 21.6832 0 20.4351 0ZM6.91455 26.8632V25.6952H9.41066V26.8632H6.91455ZM12.3228 31.9244V29.5884H11.0747V31.9244H10.6587V25.6952H12.7388V31.9244H12.3228ZM10.9083 33.871L10.6587 33.0923H12.6972L12.4476 33.871H10.9083ZM13.9869 25.6952H16.483V26.8632H13.9869V25.6952ZM21.4752 21.1402C21.4752 21.9577 21.1424 22.7364 20.5599 23.3593L18.4382 25.5395L18.3966 25.5784C18.1886 25.812 17.939 26.0456 17.731 26.2403V25.0723C17.731 24.7608 17.4398 24.4883 17.107 24.4883H6.29053C5.95771 24.4883 5.6665 24.7608 5.6665 25.0723V26.2403C5.45849 26.0067 5.20888 25.7731 5.00087 25.5784L2.83758 23.3593C2.25515 22.7364 1.92234 21.9577 1.92234 21.1402V2.14127C1.92234 1.59622 2.37996 1.16796 2.96238 1.16796H20.4351C21.0176 1.16796 21.4752 1.59622 21.4752 2.14127V21.1402Z" fill="#E79B38"/>
</svg>
